<?xml version="1.0" encoding="UTF-8"?>
<svg xmlns="http://www.w3.org/2000/svg" viewBox="0 0 1200 630" width="1200" height="630">
  <defs>
    <linearGradient id="g58805" x1="82.13938048432698%" y1="11.697777844051096%" x2="17.86061951567303%" y2="88.3022221559489%">
      <stop offset="0%" stop-color="#7C3AED"/>
      <stop offset="100%" stop-color="#6D28D9"/>
    </linearGradient>
  </defs>
  <rect width="1200" height="630" fill="url(#g58805)"/>
  <path d="M 956.6635372303426 466.58539074938744 L 1181.335747349076 466.58539074938744 L 1181.335747349076 568.8123457459733" fill="none" stroke="rgba(255,255,255,0.09762682849541307)" stroke-width="2"/><circle cx="956.6635372303426" cy="466.58539074938744" r="4" fill="rgba(255,255,255,0.15)"/><path d="M 535.1959126256406 229.1618890268728 L 357.34025319106877 229.1618890268728 L 357.34025319106877 347.6436572847888" fill="none" stroke="rgba(255,255,255,0.10397582383826376)" stroke-width="2"/><circle cx="535.1959126256406" cy="229.1618890268728" r="4" fill="rgba(255,255,255,0.15)"/><path d="M 273.16740497015417 529.4526899466291 L 123.22228127159178 529.4526899466291 L 123.22228127159178 455.4653850803152" fill="none" stroke="rgba(255,255,255,0.07844418743625284)" stroke-width="2"/><circle cx="273.16740497015417" cy="529.4526899466291" r="4" fill="rgba(255,255,255,0.15)"/><path d="M 897.7232029847801 205.28585561085492 L 1052.6727110287175 205.28585561085492 L 1052.6727110287175 263.12942984048277" fill="none" stroke="rgba(255,255,255,0.1342074366658926)" stroke-width="2"/><circle cx="897.7232029847801" cy="205.28585561085492" r="4" fill="rgba(255,255,255,0.15)"/><path d="M 668.6492568533868 166.2442133249715 L 790.5310081108473 166.2442133249715 L 790.5310081108473 102.85318069625646" fill="none" stroke="rgba(255,255,255,0.08844869285821916)" stroke-width="2"/><circle cx="668.6492568533868" cy="166.2442133249715" r="4" fill="rgba(255,255,255,0.15)"/><text x="669.4394872989506" y="238.79962577484548" font-family="monospace" font-size="120" fill="rgba(255,255,255,0.07)">&lt;/&gt;</text><text x="331.95394398644567" y="306.2822503782809" font-family="monospace" font-size="27.021230747923255" fill="rgba(255,255,255,0.07010006057098508)">1</text><text x="589.5746618136764" y="388.7961819767952" font-family="monospace" font-size="22.90622433181852" fill="rgba(255,255,255,0.10065015880391001)">0</text><text x="559.973831474781" y="283.2395045342855" font-family="monospace" font-size="29.692172767594457" fill="rgba(255,255,255,0.07489573236554861)">1</text><text x="867.9539917036891" y="495.8591708005406" font-family="monospace" font-size="49.63307534251362" fill="rgba(255,255,255,0.07225339369848371)">1</text><text x="876.6919672861695" y="373.6853324947879" font-family="monospace" font-size="47.103656818158925" fill="rgba(255,255,255,0.12845245426520707)">1</text><text x="703.4232003241777" y="361.92564129596576" font-family="monospace" font-size="49.98712219670415" fill="rgba(255,255,255,0.08394865810871124)">1</text><text x="473.92941070720553" y="295.6596195907332" font-family="monospace" font-size="47.64070466905832" fill="rgba(255,255,255,0.08647092938423157)">0</text><rect x="921.8952994327992" y="395.72268817573786" width="16" height="16" rx="2" fill="rgba(255,255,255,0.1)"/><rect x="941.8952994327992" y="395.72268817573786" width="16" height="16" rx="2" fill="rgba(255,255,255,0.1)"/><rect x="961.8952994327992" y="395.72268817573786" width="16" height="16" rx="2" fill="rgba(255,255,255,0.1)"/><rect x="981.8952994327992" y="395.72268817573786" width="16" height="16" rx="2" fill="rgba(255,255,255,0.04)"/><rect x="1001.8952994327992" y="395.72268817573786" width="16" height="16" rx="2" fill="rgba(255,255,255,0.1)"/><rect x="921.8952994327992" y="415.72268817573786" width="16" height="16" rx="2" fill="rgba(255,255,255,0.1)"/><rect x="941.8952994327992" y="415.72268817573786" width="16" height="16" rx="2" fill="rgba(255,255,255,0.04)"/><rect x="961.8952994327992" y="415.72268817573786" width="16" height="16" rx="2" fill="rgba(255,255,255,0.04)"/><rect x="981.8952994327992" y="415.72268817573786" width="16" height="16" rx="2" fill="rgba(255,255,255,0.1)"/><rect x="1001.8952994327992" y="415.72268817573786" width="16" height="16" rx="2" fill="rgba(255,255,255,0.1)"/><rect x="921.8952994327992" y="435.72268817573786" width="16" height="16" rx="2" fill="rgba(255,255,255,0.1)"/><rect x="941.8952994327992" y="435.72268817573786" width="16" height="16" rx="2" fill="rgba(255,255,255,0.1)"/><rect x="961.8952994327992" y="435.72268817573786" width="16" height="16" rx="2" fill="rgba(255,255,255,0.04)"/><rect x="981.8952994327992" y="435.72268817573786" width="16" height="16" rx="2" fill="rgba(255,255,255,0.1)"/><rect x="1001.8952994327992" y="435.72268817573786" width="16" height="16" rx="2" fill="rgba(255,255,255,0.04)"/>
  <circle cx="88.71815549209714" cy="144.3775505782105" r="2.1619680179283023" fill="rgba(255,255,255,0.06828365632798522)"/><circle cx="442.9125708527863" cy="302.95529677765444" r="2.923150713555515" fill="rgba(255,255,255,0.05832707819761708)"/><circle cx="1156.9841570220888" cy="362.86805843934417" r="1.5570216863416135" fill="rgba(255,255,255,0.050777132175862785)"/><circle cx="951.9033467397094" cy="578.035458214581" r="1.277333840727806" fill="rgba(255,255,255,0.04362884049303829)"/><circle cx="605.9748309664428" cy="103.43773204833269" r="1.7211593864485621" fill="rgba(255,255,255,0.05362864759052172)"/><circle cx="675.7175389677286" cy="66.95039592683315" r="1.827786629088223" fill="rgba(255,255,255,0.07089177370769903)"/><circle cx="14.689709153026342" cy="581.2494754325598" r="2.35118719143793" fill="rgba(255,255,255,0.07384732474572957)"/><circle cx="305.0172770395875" cy="552.8519757580943" r="2.7321832231245935" fill="rgba(255,255,255,0.07564271365525202)"/><circle cx="287.5022068619728" cy="313.9739938429557" r="1.456139384303242" fill="rgba(255,255,255,0.07831153660779819)"/><circle cx="567.4601767212152" cy="7.978684091940522" r="2.330082605127245" fill="rgba(255,255,255,0.05178952936083078)"/><circle cx="1070.760378241539" cy="384.9253027816303" r="2.117681343574077" fill="rgba(255,255,255,0.04910829052794725)"/><circle cx="553.3420356921852" cy="269.2488964414224" r="1.6726395646110177" fill="rgba(255,255,255,0.046687245632056146)"/>
  <text x="600" y="335" font-family="system-ui, -apple-system, 'Segoe UI', sans-serif" font-size="58" font-weight="700" fill="rgba(0,0,0,0.15)" text-anchor="middle" letter-spacing="1">AWS Developer Associate</text>
  <text x="600" y="332" font-family="system-ui, -apple-system, 'Segoe UI', sans-serif" font-size="58" font-weight="700" fill="white" text-anchor="middle" letter-spacing="1">AWS Developer Associate</text>
  <g transform="translate(1140, 575)">
    <rect x="0" y="0" width="40" height="40" rx="8" fill="rgba(255,255,255,0.15)"/>
    <text x="20" y="29" font-family="sans-serif" font-weight="bold" font-size="24" fill="rgba(255,255,255,0.6)" text-anchor="middle">K</text>
  </g>
</svg>